<svg viewBox="0 0 24 24" xml:space="preserve" xmlns="http://www.w3.org/2000/svg" enable-background="new 0 0 24 24"><g id="_icons"><path d="M22 12c0-.9-.4-1.7-1.1-2.1l-1.8-1.2c-.5-.3-1.1-.2-1.4.3-.3.5-.2 1.1.3 1.4l1.8 1.2c.2.1.2.3.2.4s0 .3-.2.5l-2 1.4c-1.8 1.2-4 1.8-6.2 1.7-.5 0-1 .4-1 .9 0 .6.4 1 .9 1h.6c2.4 0 4.7-.7 6.8-2.1l2-1.3c.7-.4 1.1-1.2 1.1-2.1zM3.1 14.1l2 1.4c.5.2.9.5 1.3.7l-1.1 1.1c-.4.4-.4 1 0 1.4.2.2.4.3.7.3s.5-.1.7-.3l2.1-2.1 1.4-1.4 4.8-4.8L16.4 9l2.1-2.1c.4-.4.4-1 0-1.4s-1-.4-1.4 0L15.6 7c-3.5-1.1-7.4-.5-10.4 1.5l-2 1.3C2.4 10.3 2 11.1 2 12s.4 1.7 1.1 2.1zM12 9.6c.3 0 .6.1.9.2l-3.1 3.1c-.1-.3-.2-.6-.2-.9 0-1.3 1.1-2.4 2.4-2.4zm-7.8 1.9 2-1.4c.9-.4 1.7-.8 2.6-1.1-.8.8-1.2 1.8-1.2 3 0 .8.2 1.6.7 2.3l-.4.4c-.6-.2-1.1-.5-1.6-.9l-2-1.4c-.3-.1-.3-.3-.3-.4s0-.3.2-.5z" fill="#eeeeee" class="fill-000000"></path></g></svg>