<svg viewBox="0 0 24 24" xml:space="preserve" xmlns="http://www.w3.org/2000/svg" enable-background="new 0 0 24 24"><path d="m20.9 9.9-2-1.4c-4.2-2.8-9.5-2.8-13.7 0l-2 1.4C2.4 10.4 2 11.1 2 12s.4 1.6 1.1 2.1l2 1.4c2.1 1.4 4.5 2.1 6.8 2.1s4.8-.7 6.8-2.1l2-1.4c.7-.5 1.1-1.3 1.1-2.1s-.2-1.6-.9-2.1zM8.8 15c-.9-.3-1.7-.7-2.5-1.2l-2-1.4c-.3-.1-.3-.3-.3-.4s0-.3.2-.5l2-1.4c.9-.4 1.7-.8 2.6-1.1-.7.8-1.2 1.9-1.2 3 0 1.2.5 2.2 1.2 3zm3.2-.6c-1.3 0-2.4-1.1-2.4-2.4s1.1-2.4 2.4-2.4 2.4 1.1 2.4 2.4-1.1 2.4-2.4 2.4zm7.8-1.9-2 1.4c-.8.5-1.6.9-2.5 1.2.7-.8 1.2-1.9 1.2-3 0-1.2-.5-2.2-1.2-3 .9.3 1.7.7 2.5 1.2l2 1.4c.2 0 .2.2.2.3s0 .3-.2.5z" id="_icons" fill="#eeeeee" class="fill-000000"></path></svg>