<svg viewBox="0 0 24 24" xml:space="preserve" xmlns="http://www.w3.org/2000/svg" enable-background="new 0 0 24 24"><g id="_icons"><path d="M8.7 9.7 11 7.4V15c0 .6.4 1 1 1s1-.4 1-1V7.4l2.3 2.3c.2.2.4.3.7.3s.5-.1.7-.3c.4-.4.4-1 0-1.4l-4-4c-.1-.1-.2-.2-.3-.2-.2-.1-.5-.1-.8 0-.1.1-.2.1-.3.2l-4 4c-.4.4-.4 1 0 1.4s1 .4 1.4 0z" fill="#eeeeee" class="fill-000000"></path><path d="M19 13c-.6 0-1 .4-1 1v2c0 1.1-.9 2-2 2H8c-1.1 0-2-.9-2-2v-2c0-.6-.4-1-1-1s-1 .4-1 1v2c0 2.2 1.8 4 4 4h8c2.2 0 4-1.8 4-4v-2c0-.6-.4-1-1-1z" fill="#eeeeee" class="fill-000000"></path></g></svg>